<svg version="1.1" id="Layer_1" xmlns="http://www.w3.org/2000/svg" xmlns:xlink="http://www.w3.org/1999/xlink" x="0px" y="0px"
	 width="100%" viewBox="0 0 400 304" enable-background="new 0 0 400 304" xml:space="preserve">
<path fill="#ffffff" opacity="1.000000" stroke="#ffffff" stroke-width="12"
	d="
M289.879822,292.599823 
	C288.955719,296.837280 286.819641,297.131500 284.067780,294.908295 
	C269.302063,282.979370 254.535324,271.050934 239.874954,258.993408 
	C237.727203,257.226959 235.524811,255.042709 234.443283,252.572144 
	C232.599609,248.360718 229.715820,247.943451 225.674911,247.999863 
	C204.353958,248.297501 183.060120,249.722366 161.723495,249.415268 
	C155.407227,249.324356 149.069778,249.702881 142.764755,250.171936 
	C138.223770,250.509735 136.316284,248.581665 136.288025,244.209518 
	C136.265427,240.713715 135.965347,237.217911 135.997879,233.724060 
	C136.027390,230.553299 134.699493,229.301849 131.498276,229.297455 
	C121.454964,229.283661 111.684776,227.189209 101.931015,225.054840 
	C96.017265,223.760773 90.413994,221.628296 85.425880,218.207993 
	C83.443893,216.848984 82.083168,216.930847 80.093658,218.110413 
	C67.748390,225.429733 54.467575,229.860291 40.081940,230.979126 
	C33.532745,231.488480 32.275639,230.304047 33.621552,223.839798 
	C34.935326,217.529877 38.032028,212.020493 41.365646,206.630112 
	C43.993790,202.380463 46.756630,198.214371 49.424885,193.989212 
	C55.847977,183.818268 56.240337,173.507431 50.666119,162.743759 
	C45.432270,152.637314 41.853279,141.908279 40.354137,130.570816 
	C35.627720,94.826698 49.939796,59.017426 80.886017,38.172241 
	C93.369278,29.763597 106.962700,24.273514 121.859764,22.048201 
	C122.682106,21.925358 123.505844,21.746069 124.331879,21.728073 
	C125.836937,21.695288 127.590569,21.597504 127.977249,23.506641 
	C128.421707,25.701025 126.589516,26.430794 124.995407,26.813614 
	C121.286766,27.704231 117.488655,28.224554 113.784042,29.129326 
	C77.591156,37.968658 50.410450,67.611320 45.553322,104.300331 
	C43.125145,122.641907 45.075298,140.830643 54.068947,157.199860 
	C63.133141,173.697495 60.723557,188.341797 50.310223,202.844971 
	C46.914982,207.573685 43.600067,212.408798 41.267216,217.786484 
	C40.313801,219.984283 38.815735,222.165710 39.835461,225.157852 
	C53.327774,224.802673 65.494003,220.492203 76.963356,213.667908 
	C79.886551,211.928589 78.797371,209.908829 78.250748,207.683456 
	C76.227440,199.446304 79.623505,192.640396 86.621208,191.035492 
	C90.876526,190.059555 94.802208,190.935577 97.181541,194.765106 
	C99.562462,198.597168 98.748360,202.502640 95.679367,205.738724 
	C93.414513,208.126862 90.901985,210.280106 88.390015,212.641205 
	C90.479012,216.287003 93.947624,217.422714 97.186691,218.278183 
	C139.556244,229.468231 180.132614,227.138229 216.657242,200.391266 
	C240.600906,182.857330 254.980988,159.326233 257.934784,129.252487 
	C262.858307,79.124008 230.696640,34.555542 181.449341,23.781694 
	C176.429062,22.683407 171.282410,22.154278 166.186768,21.413603 
	C164.264191,21.134151 161.579315,21.589752 161.564362,18.835388 
	C161.547440,15.720410 164.433975,16.706345 166.175934,16.704222 
	C182.779938,16.683973 197.973358,21.885235 212.152130,30.033331 
	C232.911591,41.963142 248.021118,58.990730 256.834076,81.401649 
	C258.846924,86.520149 260.384216,91.792076 261.398346,97.185822 
	C262.038239,100.589005 263.727722,101.666603 267.204773,101.753181 
	C289.843048,102.316833 312.475952,103.104103 335.108765,103.872856 
	C339.098633,104.008369 343.079803,104.400200 347.064911,104.675232 
	C352.581696,105.055992 355.442078,107.769600 355.136169,113.306061 
	C354.209442,130.079208 353.010254,146.837296 351.916229,163.601196 
	C351.049835,176.877304 350.220367,190.155945 349.303864,203.428589 
	C348.376282,216.861969 347.594910,230.311646 346.312103,243.712311 
	C345.279968,254.494522 339.438019,259.624695 328.619232,260.257385 
	C316.990326,260.937378 305.368011,261.765625 293.731232,262.252380 
	C290.102600,262.404144 289.185974,263.973877 289.300964,267.216339 
	C289.595825,275.533234 289.725739,283.856018 289.879822,292.599823 
M348.240204,134.937134 
	C349.192841,129.173874 348.533325,123.317535 349.466827,117.516136 
	C350.498535,111.104347 349.367950,109.765282 342.778717,109.523155 
	C317.816162,108.605888 292.844116,107.948143 267.880249,107.062546 
	C263.843506,106.919342 262.933990,108.836456 263.405243,112.241280 
	C264.093170,117.211365 263.826416,122.136383 263.506989,127.152679 
	C261.828400,153.513031 251.033005,175.741364 232.471893,193.967133 
	C209.416504,216.605988 181.197556,227.989960 148.947098,229.318130 
	C141.321701,229.632187 141.315369,229.478195 141.337067,237.109833 
	C141.338028,237.443100 141.337265,237.776382 141.339523,238.109634 
	C141.383789,244.647934 141.387329,244.794678 148.067169,244.636581 
	C173.207184,244.041611 198.342422,243.188263 223.485138,242.810837 
	C228.594620,242.734146 231.418640,242.065475 232.772247,236.293762 
	C234.783401,227.718323 242.393387,222.357254 249.772934,222.781113 
	C257.977448,223.252350 265.076599,229.513519 266.885468,237.873672 
	C268.057129,243.289093 266.099670,245.772720 260.673370,246.463593 
	C253.460693,247.381943 246.164230,247.061111 238.801544,247.509644 
	C240.283478,252.997086 277.947174,285.168640 283.758850,286.669342 
	C283.758850,279.148712 283.892029,271.511993 283.704102,263.883179 
	C283.606293,259.912323 284.542236,257.700256 289.104797,257.457672 
	C302.389709,256.751190 315.654114,255.664124 328.929016,254.762207 
	C336.220428,254.266830 339.627411,251.588028 340.725555,244.352676 
	C343.249237,227.724030 343.187531,210.876373 344.548126,194.143311 
	C346.125153,174.748505 346.937347,155.291534 348.240204,134.937134 
M245.598038,241.731827 
	C249.733658,241.693512 253.871353,241.722031 258.004211,241.594528 
	C260.998230,241.502136 262.140472,240.055405 261.153351,237.013229 
	C258.272308,228.134201 247.161057,225.452408 240.758591,232.149231 
	C238.621246,234.384827 236.701874,237.227310 237.644867,240.105637 
	C238.715561,243.373764 242.235077,241.306427 245.598038,241.731827 
M89.826752,204.179871 
	C91.806625,202.319992 94.199783,200.273041 92.043152,197.442780 
	C90.422707,195.316193 87.811005,195.835861 85.709999,197.258240 
	C82.625702,199.346298 82.309601,203.696945 84.971024,207.931183 
	C86.418358,206.822937 87.852371,205.724899 89.826752,204.179871 
z"/>
<path fill="#ffffff" opacity="1.000000" stroke="#ffffff" stroke-width="12"
	d="
M161.041809,121.690414 
	C160.051163,125.121307 158.317032,127.407021 155.082977,128.166122 
	C150.899368,129.148087 146.831589,126.845551 145.677078,122.921478 
	C144.412430,118.623123 146.230423,114.976471 150.443268,113.361115 
	C154.492538,111.808487 158.441666,113.404266 160.264145,117.491081 
	C160.783035,118.654694 160.842926,120.023010 161.041809,121.690414 
z"/>
<path fill="#ffffff" opacity="1.000000" stroke="#ffffff" stroke-width="12"
	d="
M104.271263,128.264328 
	C99.991272,127.215797 98.067490,124.576965 97.723709,120.721550 
	C97.437195,117.508247 99.132111,115.371155 101.783722,113.875977 
	C104.686142,112.239372 107.520332,112.483719 110.210457,114.382637 
	C113.176888,116.476578 113.963272,119.494987 113.028511,122.759575 
	C111.872093,126.798264 108.876022,128.572693 104.271263,128.264328 
z"/>
<path fill="#ffffff" opacity="1.000000" stroke="#ffffff" stroke-width="12"
	d="
M194.620758,115.726654 
	C199.654358,110.315308 207.092148,113.063522 208.172150,118.650780 
	C208.847351,122.143890 208.107971,125.249748 204.753571,127.235748 
	C201.453857,129.189346 198.240356,128.658722 195.555038,126.312721 
	C192.215012,123.394745 192.020508,119.782280 194.620758,115.726654 
z"/>
</svg>